<svg xmlns="http://www.w3.org/2000/svg" width="64" height="64" viewBox="0 0 64 64">
  <defs>
    <linearGradient id="g" x1="12" y1="10" x2="52" y2="54" gradientUnits="userSpaceOnUse">
      <stop offset="0" stop-color="#22c55e"/>
      <stop offset="1" stop-color="#0ea5e9"/>
    </linearGradient>
  </defs>
  <rect x="6" y="6" width="52" height="52" rx="14" fill="url(#g)"/>
  <path d="M30.2 18.2c1.2-1.7 3.7-1.7 4.9 0 3.9 5.6 11.9 15.2 11.9 21.6 0 8.2-6.7 14.9-14.9 14.9S17.1 48 17.1 39.8c0-6.4 8-16 13.1-21.6z" fill="#ffffff" opacity="0.95"/>
  <path d="M24.5 40.4c2.3-2.6 6-2.6 8.3 0 1.8 2.1 4.9 2.1 6.7 0" fill="none" stroke="#0f172a" stroke-opacity="0.35" stroke-width="3" stroke-linecap="round"/>
  <circle cx="23.5" cy="27.8" r="3.2" fill="#0f172a" fill-opacity="0.18"/>
  <circle cx="41.2" cy="31.2" r="2.6" fill="#0f172a" fill-opacity="0.18"/>
</svg>









